<mxfile host="Electron" modified="2024-06-01T13:19:12.443Z" agent="Mozilla/5.0 (Windows NT 10.0; Win64; x64) AppleWebKit/537.36 (KHTML, like Gecko) draw.io/24.4.0 Chrome/120.0.6099.109 Electron/28.1.0 Safari/537.36" etag="vwsdyoJssDXAQutCvwpz" version="24.4.0" type="device">
  <diagram name="ページ1" id="Qz9m1jouxG5U3JRUf05g">
    <mxGraphModel dx="1563" dy="1047" grid="1" gridSize="10" guides="1" tooltips="1" connect="1" arrows="1" fold="1" page="1" pageScale="1" pageWidth="1654" pageHeight="1169" math="0" shadow="0">
      <root>
        <mxCell id="0" />
        <mxCell id="1" parent="0" />
        <mxCell id="u1hAvfkpSpj0WjAq0JWy-3" value="&lt;p style=&quot;margin:0px;margin-top:4px;text-align:center;&quot;&gt;&lt;br&gt;&lt;/p&gt;&lt;p style=&quot;margin:0px;margin-top:4px;text-align:center;&quot;&gt;tkinter&lt;/p&gt;&lt;p style=&quot;margin:0px;margin-top:4px;text-align:center;&quot;&gt;&lt;br&gt;&lt;/p&gt;" style="verticalAlign=top;align=left;overflow=fill;html=1;whiteSpace=wrap;" parent="1" vertex="1">
          <mxGeometry x="695" y="959" width="120" height="60" as="geometry" />
        </mxCell>
        <mxCell id="u1hAvfkpSpj0WjAq0JWy-4" value="&lt;div&gt;&lt;br&gt;&lt;/div&gt;&lt;div&gt;&lt;br&gt;&lt;/div&gt;" style="endArrow=open;endSize=12;dashed=1;html=1;rounded=0;entryX=0.538;entryY=1.048;entryDx=0;entryDy=0;entryPerimeter=0;exitX=0;exitY=0.5;exitDx=0;exitDy=0;" parent="1" source="QMs9IUyX99t9ju86rxO--3" target="u1hAvfkpSpj0WjAq0JWy-3" edge="1">
          <mxGeometry width="160" relative="1" as="geometry">
            <mxPoint x="405" y="399" as="sourcePoint" />
            <mxPoint x="565" y="639" as="targetPoint" />
          </mxGeometry>
        </mxCell>
        <mxCell id="u1hAvfkpSpj0WjAq0JWy-5" value="&lt;p style=&quot;margin:0px;margin-top:4px;text-align:center;&quot;&gt;SimState&lt;/p&gt;" style="verticalAlign=top;align=left;overflow=fill;html=1;whiteSpace=wrap;" parent="1" vertex="1">
          <mxGeometry x="715" y="853" width="120" height="60" as="geometry" />
        </mxCell>
        <mxCell id="AWs0AIrcNvtHD0mJR_CJ-1" value="&lt;p style=&quot;margin:0px;margin-top:4px;text-align:center;&quot;&gt;panda_arm&lt;/p&gt;" style="verticalAlign=top;align=left;overflow=fill;html=1;whiteSpace=wrap;" parent="1" vertex="1">
          <mxGeometry x="80" y="210" width="120" height="60" as="geometry" />
        </mxCell>
        <mxCell id="AWs0AIrcNvtHD0mJR_CJ-2" value="&lt;p style=&quot;margin:0px;margin-top:4px;text-align:center;&quot;&gt;RobotKinetics&lt;/p&gt;" style="verticalAlign=top;align=left;overflow=fill;html=1;whiteSpace=wrap;" parent="1" vertex="1">
          <mxGeometry x="230" y="210" width="120" height="60" as="geometry" />
        </mxCell>
        <mxCell id="q2Q6VRc8DqvvhNad2FPL-1" value="&lt;p style=&quot;margin:0px;margin-top:4px;text-align:center;&quot;&gt;&lt;br&gt;&lt;b&gt;JointView&lt;/b&gt;&lt;/p&gt;" style="verticalAlign=top;align=left;overflow=fill;html=1;whiteSpace=wrap;" parent="1" vertex="1">
          <mxGeometry x="390" y="1089" width="160" height="70" as="geometry" />
        </mxCell>
        <mxCell id="q2Q6VRc8DqvvhNad2FPL-2" value="&lt;p style=&quot;margin:0px;margin-top:4px;text-align:center;&quot;&gt;tkinter::Widget&lt;/p&gt;" style="verticalAlign=top;align=left;overflow=fill;html=1;whiteSpace=wrap;" parent="1" vertex="1">
          <mxGeometry x="825" y="1089" width="140" height="80" as="geometry" />
        </mxCell>
        <mxCell id="QMs9IUyX99t9ju86rxO--3" value="&lt;p style=&quot;margin:0px;margin-top:4px;text-align:center;&quot;&gt;Debugger&lt;/p&gt;" style="verticalAlign=top;align=left;overflow=fill;html=1;whiteSpace=wrap;" parent="1" vertex="1">
          <mxGeometry x="395" y="969" width="150" height="60" as="geometry" />
        </mxCell>
        <mxCell id="QMs9IUyX99t9ju86rxO--4" value="" style="endArrow=open;endFill=1;endSize=12;html=1;rounded=0;entryX=0.5;entryY=0;entryDx=0;entryDy=0;exitX=0.5;exitY=1;exitDx=0;exitDy=0;" parent="1" source="QMs9IUyX99t9ju86rxO--3" target="q2Q6VRc8DqvvhNad2FPL-1" edge="1">
          <mxGeometry width="160" relative="1" as="geometry">
            <mxPoint x="215" y="939" as="sourcePoint" />
            <mxPoint x="375" y="939" as="targetPoint" />
          </mxGeometry>
        </mxCell>
        <mxCell id="QMs9IUyX99t9ju86rxO--5" value="" style="endArrow=open;endFill=1;endSize=12;html=1;rounded=0;entryX=0.006;entryY=0.483;entryDx=0;entryDy=0;exitX=1;exitY=0.5;exitDx=0;exitDy=0;entryPerimeter=0;" parent="1" source="q2Q6VRc8DqvvhNad2FPL-1" target="q2Q6VRc8DqvvhNad2FPL-2" edge="1">
          <mxGeometry width="160" relative="1" as="geometry">
            <mxPoint x="565" y="1199" as="sourcePoint" />
            <mxPoint x="685" y="1199" as="targetPoint" />
          </mxGeometry>
        </mxCell>
        <mxCell id="h9wSukIfPtlWrK1b2Klg-1" value="&lt;p style=&quot;margin:0px;margin-top:4px;text-align:center;&quot;&gt;TaskManager&lt;/p&gt;" style="verticalAlign=top;align=left;overflow=fill;html=1;whiteSpace=wrap;" parent="1" vertex="1">
          <mxGeometry x="290" y="480" width="120" height="60" as="geometry" />
        </mxCell>
        <mxCell id="h9wSukIfPtlWrK1b2Klg-2" value="&lt;p style=&quot;margin:0px;margin-top:4px;text-align:center;&quot;&gt;PIDController&lt;/p&gt;" style="verticalAlign=top;align=left;overflow=fill;html=1;whiteSpace=wrap;" parent="1" vertex="1">
          <mxGeometry x="1128" y="470" width="120" height="60" as="geometry" />
        </mxCell>
        <mxCell id="h9wSukIfPtlWrK1b2Klg-4" value="&lt;p style=&quot;margin:0px;margin-top:4px;text-align:center;&quot;&gt;&lt;i&gt;&amp;lt;&amp;lt;Interface&amp;gt;&amp;gt;&lt;/i&gt;&lt;br&gt;&lt;b&gt;Controller&lt;/b&gt;&lt;/p&gt;&lt;hr size=&quot;1&quot; style=&quot;border-style:solid;&quot;&gt;&lt;p style=&quot;margin:0px;margin-left:4px;&quot;&gt;&lt;/p&gt;&lt;p style=&quot;margin:0px;margin-left:4px;&quot;&gt;+ update()&lt;br&gt;&lt;/p&gt;" style="verticalAlign=top;align=left;overflow=fill;html=1;whiteSpace=wrap;" parent="1" vertex="1">
          <mxGeometry x="930" y="460" width="130" height="90" as="geometry" />
        </mxCell>
        <mxCell id="h9wSukIfPtlWrK1b2Klg-5" value="" style="endArrow=block;dashed=1;endFill=0;endSize=12;html=1;rounded=0;entryX=0.986;entryY=0.424;entryDx=0;entryDy=0;entryPerimeter=0;exitX=0;exitY=0.5;exitDx=0;exitDy=0;" parent="1" source="h9wSukIfPtlWrK1b2Klg-2" target="h9wSukIfPtlWrK1b2Klg-4" edge="1">
          <mxGeometry width="160" relative="1" as="geometry">
            <mxPoint x="1018" y="640" as="sourcePoint" />
            <mxPoint x="1178" y="640" as="targetPoint" />
          </mxGeometry>
        </mxCell>
        <mxCell id="h9wSukIfPtlWrK1b2Klg-6" value="&lt;p style=&quot;margin:0px;margin-top:4px;text-align:center;&quot;&gt;CommandState&lt;/p&gt;" style="verticalAlign=top;align=left;overflow=fill;html=1;whiteSpace=wrap;" parent="1" vertex="1">
          <mxGeometry x="535" y="859" width="110" height="60" as="geometry" />
        </mxCell>
        <mxCell id="h9wSukIfPtlWrK1b2Klg-7" value="" style="endArrow=open;endFill=1;endSize=12;html=1;rounded=0;exitX=0.25;exitY=0;exitDx=0;exitDy=0;entryX=0.349;entryY=0.971;entryDx=0;entryDy=0;entryPerimeter=0;" parent="1" source="QMs9IUyX99t9ju86rxO--3" target="h9wSukIfPtlWrK1b2Klg-6" edge="1">
          <mxGeometry width="160" relative="1" as="geometry">
            <mxPoint x="675" y="989" as="sourcePoint" />
            <mxPoint x="835" y="989" as="targetPoint" />
          </mxGeometry>
        </mxCell>
        <mxCell id="h9wSukIfPtlWrK1b2Klg-8" value="" style="endArrow=open;endFill=1;endSize=12;html=1;rounded=0;exitX=0.75;exitY=0;exitDx=0;exitDy=0;entryX=0.5;entryY=1;entryDx=0;entryDy=0;" parent="1" source="QMs9IUyX99t9ju86rxO--3" target="u1hAvfkpSpj0WjAq0JWy-5" edge="1">
          <mxGeometry width="160" relative="1" as="geometry">
            <mxPoint x="515" y="991" as="sourcePoint" />
            <mxPoint x="516" y="899" as="targetPoint" />
          </mxGeometry>
        </mxCell>
        <mxCell id="h9wSukIfPtlWrK1b2Klg-9" value="&lt;p style=&quot;margin:0px;margin-top:4px;text-align:center;&quot;&gt;DataLogger&lt;/p&gt;" style="verticalAlign=top;align=left;overflow=fill;html=1;whiteSpace=wrap;" parent="1" vertex="1">
          <mxGeometry x="902" y="853" width="120" height="60" as="geometry" />
        </mxCell>
        <mxCell id="h9wSukIfPtlWrK1b2Klg-10" value="" style="endArrow=open;endFill=1;endSize=12;html=1;rounded=0;exitX=1;exitY=0.5;exitDx=0;exitDy=0;entryX=0.011;entryY=0.433;entryDx=0;entryDy=0;entryPerimeter=0;" parent="1" source="u1hAvfkpSpj0WjAq0JWy-5" target="h9wSukIfPtlWrK1b2Klg-9" edge="1">
          <mxGeometry width="160" relative="1" as="geometry">
            <mxPoint x="868" y="1059" as="sourcePoint" />
            <mxPoint x="935" y="999" as="targetPoint" />
          </mxGeometry>
        </mxCell>
        <mxCell id="h9wSukIfPtlWrK1b2Klg-11" value="&lt;p style=&quot;margin:0px;margin-top:4px;text-align:center;&quot;&gt;&lt;u&gt;main&lt;/u&gt;&lt;/p&gt;" style="verticalAlign=top;align=left;overflow=fill;html=1;whiteSpace=wrap;" parent="1" vertex="1">
          <mxGeometry x="60" y="490" width="110" height="60" as="geometry" />
        </mxCell>
        <mxCell id="h9wSukIfPtlWrK1b2Klg-12" value="&lt;p style=&quot;margin:0px;margin-top:4px;text-align:center;&quot;&gt;TaskRequest&lt;/p&gt;" style="verticalAlign=top;align=left;overflow=fill;html=1;whiteSpace=wrap;" parent="1" vertex="1">
          <mxGeometry x="130" y="700" width="100" height="40" as="geometry" />
        </mxCell>
        <mxCell id="h9wSukIfPtlWrK1b2Klg-13" value="" style="endArrow=open;endFill=1;endSize=12;html=1;rounded=0;exitX=0;exitY=0;exitDx=0;exitDy=0;" parent="1" source="QMs9IUyX99t9ju86rxO--3" target="l-inzMmxbqOnDXNdHYrH-9" edge="1">
          <mxGeometry width="160" relative="1" as="geometry">
            <mxPoint x="460" y="722" as="sourcePoint" />
            <mxPoint x="324.9999999999998" y="670" as="targetPoint" />
          </mxGeometry>
        </mxCell>
        <mxCell id="h9wSukIfPtlWrK1b2Klg-17" value="1" style="edgeLabel;resizable=0;html=1;align=right;verticalAlign=top;" parent="1" connectable="0" vertex="1">
          <mxGeometry x="410" y="943" as="geometry" />
        </mxCell>
        <mxCell id="h9wSukIfPtlWrK1b2Klg-19" value="" style="endArrow=open;endFill=1;endSize=12;html=1;rounded=0;exitX=0.25;exitY=1;exitDx=0;exitDy=0;entryX=0.5;entryY=0;entryDx=0;entryDy=0;" parent="1" source="h9wSukIfPtlWrK1b2Klg-1" target="h9wSukIfPtlWrK1b2Klg-12" edge="1">
          <mxGeometry width="160" relative="1" as="geometry">
            <mxPoint x="256.5" y="650" as="sourcePoint" />
            <mxPoint x="323.5" y="590" as="targetPoint" />
          </mxGeometry>
        </mxCell>
        <mxCell id="h9wSukIfPtlWrK1b2Klg-20" value="" style="endArrow=open;endFill=1;endSize=12;html=1;rounded=0;exitX=1;exitY=0.5;exitDx=0;exitDy=0;entryX=0;entryY=0.5;entryDx=0;entryDy=0;" parent="1" source="h9wSukIfPtlWrK1b2Klg-11" target="h9wSukIfPtlWrK1b2Klg-1" edge="1">
          <mxGeometry width="160" relative="1" as="geometry">
            <mxPoint x="170" y="584" as="sourcePoint" />
            <mxPoint x="210" y="750" as="targetPoint" />
          </mxGeometry>
        </mxCell>
        <mxCell id="h9wSukIfPtlWrK1b2Klg-23" value="" style="endArrow=open;endFill=1;endSize=12;html=1;rounded=0;exitX=1;exitY=0.5;exitDx=0;exitDy=0;entryX=-0.014;entryY=0.44;entryDx=0;entryDy=0;entryPerimeter=0;exitPerimeter=0;" parent="1" source="h9wSukIfPtlWrK1b2Klg-26" target="h9wSukIfPtlWrK1b2Klg-4" edge="1">
          <mxGeometry width="160" relative="1" as="geometry">
            <mxPoint x="800" y="470" as="sourcePoint" />
            <mxPoint x="840" y="674" as="targetPoint" />
          </mxGeometry>
        </mxCell>
        <mxCell id="h9wSukIfPtlWrK1b2Klg-24" value="Motion&lt;div&gt;Controller&lt;/div&gt;" style="swimlane;fontStyle=1;align=center;verticalAlign=top;childLayout=stackLayout;horizontal=1;startSize=50;horizontalStack=0;resizeParent=1;resizeParentMax=0;resizeLast=0;collapsible=1;marginBottom=0;whiteSpace=wrap;html=1;" parent="1" vertex="1">
          <mxGeometry x="670" y="440" width="160" height="134" as="geometry">
            <mxRectangle x="600" y="430" width="100" height="30" as="alternateBounds" />
          </mxGeometry>
        </mxCell>
        <mxCell id="h9wSukIfPtlWrK1b2Klg-26" value="" style="line;strokeWidth=1;fillColor=none;align=left;verticalAlign=middle;spacingTop=-1;spacingLeft=3;spacingRight=3;rotatable=0;labelPosition=right;points=[];portConstraint=eastwest;strokeColor=inherit;" parent="h9wSukIfPtlWrK1b2Klg-24" vertex="1">
          <mxGeometry y="50" width="160" height="8" as="geometry" />
        </mxCell>
        <mxCell id="h9wSukIfPtlWrK1b2Klg-27" value="+ addMotion(): type&lt;div&gt;+ update()&lt;/div&gt;" style="text;strokeColor=none;fillColor=none;align=left;verticalAlign=top;spacingLeft=4;spacingRight=4;overflow=hidden;rotatable=0;points=[[0,0.5],[1,0.5]];portConstraint=eastwest;whiteSpace=wrap;html=1;" parent="h9wSukIfPtlWrK1b2Klg-24" vertex="1">
          <mxGeometry y="58" width="160" height="76" as="geometry" />
        </mxCell>
        <mxCell id="h9wSukIfPtlWrK1b2Klg-28" value="&lt;p style=&quot;margin:0px;margin-top:4px;text-align:center;&quot;&gt;Motion&lt;/p&gt;" style="verticalAlign=top;align=left;overflow=fill;html=1;whiteSpace=wrap;" parent="1" vertex="1">
          <mxGeometry x="495" y="320" width="100" height="40" as="geometry" />
        </mxCell>
        <mxCell id="h9wSukIfPtlWrK1b2Klg-29" value="" style="endArrow=open;endFill=1;endSize=12;html=1;rounded=0;exitX=0.005;exitY=0.075;exitDx=0;exitDy=0;entryX=1;entryY=0.5;entryDx=0;entryDy=0;exitPerimeter=0;" parent="1" source="h9wSukIfPtlWrK1b2Klg-27" target="l-inzMmxbqOnDXNdHYrH-11" edge="1">
          <mxGeometry width="160" relative="1" as="geometry">
            <mxPoint x="630" y="350" as="sourcePoint" />
            <mxPoint x="720" y="393" as="targetPoint" />
          </mxGeometry>
        </mxCell>
        <mxCell id="h9wSukIfPtlWrK1b2Klg-30" value="&lt;p style=&quot;margin:0px;margin-top:4px;text-align:center;&quot;&gt;&lt;i&gt;&amp;lt;&amp;lt;Interface&amp;gt;&amp;gt;&lt;/i&gt;&lt;br&gt;&lt;b&gt;MotionPlanner&lt;/b&gt;&lt;/p&gt;&lt;hr size=&quot;1&quot; style=&quot;border-style:solid;&quot;&gt;&lt;p style=&quot;margin:0px;margin-left:4px;&quot;&gt;&lt;/p&gt;&lt;p style=&quot;margin:0px;margin-left:4px;&quot;&gt;+ generateMotion()&lt;br&gt;&lt;/p&gt;" style="verticalAlign=top;align=left;overflow=fill;html=1;whiteSpace=wrap;" parent="1" vertex="1">
          <mxGeometry x="480" y="180" width="130" height="90" as="geometry" />
        </mxCell>
        <mxCell id="h9wSukIfPtlWrK1b2Klg-31" value="" style="endArrow=open;endFill=1;endSize=12;html=1;rounded=0;exitX=0.5;exitY=0;exitDx=0;exitDy=0;entryX=0.008;entryY=0.422;entryDx=0;entryDy=0;entryPerimeter=0;" parent="1" source="h9wSukIfPtlWrK1b2Klg-1" target="h9wSukIfPtlWrK1b2Klg-30" edge="1">
          <mxGeometry width="160" relative="1" as="geometry">
            <mxPoint x="365" y="380" as="sourcePoint" />
            <mxPoint x="455" y="423" as="targetPoint" />
          </mxGeometry>
        </mxCell>
        <mxCell id="h9wSukIfPtlWrK1b2Klg-32" value="0..*" style="edgeLabel;resizable=0;html=1;align=right;verticalAlign=top;" parent="1" connectable="0" vertex="1">
          <mxGeometry x="180" y="670" as="geometry" />
        </mxCell>
        <mxCell id="h9wSukIfPtlWrK1b2Klg-33" value="0..*" style="edgeLabel;resizable=0;html=1;align=right;verticalAlign=top;" parent="1" connectable="0" vertex="1">
          <mxGeometry x="620" y="510" as="geometry" />
        </mxCell>
        <mxCell id="h9wSukIfPtlWrK1b2Klg-35" value="" style="endArrow=open;endSize=12;dashed=1;html=1;rounded=0;exitX=0.5;exitY=1;exitDx=0;exitDy=0;entryX=0.5;entryY=0;entryDx=0;entryDy=0;" parent="1" source="h9wSukIfPtlWrK1b2Klg-30" target="h9wSukIfPtlWrK1b2Klg-28" edge="1">
          <mxGeometry width="160" relative="1" as="geometry">
            <mxPoint x="730" y="300" as="sourcePoint" />
            <mxPoint x="890" y="300" as="targetPoint" />
          </mxGeometry>
        </mxCell>
        <mxCell id="l-inzMmxbqOnDXNdHYrH-1" value="0..*" style="edgeLabel;resizable=0;html=1;align=right;verticalAlign=top;" connectable="0" vertex="1" parent="1">
          <mxGeometry x="495" y="1069" as="geometry" />
        </mxCell>
        <mxCell id="l-inzMmxbqOnDXNdHYrH-3" value="" style="endArrow=open;endFill=1;endSize=12;html=1;rounded=0;exitX=0.5;exitY=1;exitDx=0;exitDy=0;entryX=0.5;entryY=0;entryDx=0;entryDy=0;" edge="1" parent="1" source="h9wSukIfPtlWrK1b2Klg-1" target="l-inzMmxbqOnDXNdHYrH-9">
          <mxGeometry width="160" relative="1" as="geometry">
            <mxPoint x="320" y="560" as="sourcePoint" />
            <mxPoint x="327.9999999999998" y="630" as="targetPoint" />
          </mxGeometry>
        </mxCell>
        <mxCell id="l-inzMmxbqOnDXNdHYrH-4" value="&lt;div&gt;&lt;br&gt;&lt;/div&gt;&lt;div&gt;&lt;br&gt;&lt;/div&gt;" style="endArrow=open;endSize=12;dashed=1;html=1;rounded=0;entryX=0.5;entryY=1;entryDx=0;entryDy=0;exitX=0;exitY=0.5;exitDx=0;exitDy=0;" edge="1" parent="1" source="QMs9IUyX99t9ju86rxO--3" target="h9wSukIfPtlWrK1b2Klg-12">
          <mxGeometry width="160" relative="1" as="geometry">
            <mxPoint x="60" y="880" as="sourcePoint" />
            <mxPoint x="425" y="903" as="targetPoint" />
          </mxGeometry>
        </mxCell>
        <mxCell id="l-inzMmxbqOnDXNdHYrH-5" value="" style="endArrow=open;endFill=1;endSize=12;html=1;rounded=0;entryX=0.5;entryY=1;entryDx=0;entryDy=0;exitX=0;exitY=0.5;exitDx=0;exitDy=0;" edge="1" parent="1" source="q2Q6VRc8DqvvhNad2FPL-1" target="h9wSukIfPtlWrK1b2Klg-12">
          <mxGeometry width="160" relative="1" as="geometry">
            <mxPoint x="380" y="960" as="sourcePoint" />
            <mxPoint x="200" y="840" as="targetPoint" />
          </mxGeometry>
        </mxCell>
        <mxCell id="l-inzMmxbqOnDXNdHYrH-6" value="1" style="edgeLabel;resizable=0;html=1;align=right;verticalAlign=top;" connectable="0" vertex="1" parent="1">
          <mxGeometry x="410" y="700" as="geometry" />
        </mxCell>
        <mxCell id="l-inzMmxbqOnDXNdHYrH-8" value="0..*" style="edgeLabel;resizable=0;html=1;align=right;verticalAlign=top;" connectable="0" vertex="1" parent="1">
          <mxGeometry x="180" y="754" as="geometry" />
        </mxCell>
        <mxCell id="l-inzMmxbqOnDXNdHYrH-9" value="&lt;p style=&quot;margin:0px;margin-top:4px;text-align:center;&quot;&gt;&lt;i&gt;&amp;lt;&amp;lt;Interface&amp;gt;&amp;gt;&lt;/i&gt;&lt;br&gt;&lt;b&gt;TaskManagerService&lt;/b&gt;&lt;/p&gt;&lt;hr size=&quot;1&quot; style=&quot;border-style:solid;&quot;&gt;&lt;p style=&quot;margin:0px;margin-left:4px;&quot;&gt;&lt;/p&gt;&lt;p style=&quot;margin:0px;margin-left:4px;&quot;&gt;+ request()&lt;br&gt;&lt;/p&gt;" style="verticalAlign=top;align=left;overflow=fill;html=1;whiteSpace=wrap;" vertex="1" parent="1">
          <mxGeometry x="320" y="730" width="130" height="70" as="geometry" />
        </mxCell>
        <mxCell id="l-inzMmxbqOnDXNdHYrH-10" value="&lt;p style=&quot;margin:0px;margin-top:4px;text-align:center;&quot;&gt;&lt;i&gt;&amp;lt;&amp;lt;Interface&amp;gt;&amp;gt;&lt;/i&gt;&lt;br&gt;&lt;b&gt;MotionControllerService&lt;/b&gt;&lt;/p&gt;&lt;hr size=&quot;1&quot; style=&quot;border-style:solid;&quot;&gt;&lt;p style=&quot;margin:0px;margin-left:4px;&quot;&gt;&lt;/p&gt;&lt;p style=&quot;margin:0px;margin-left:4px;&quot;&gt;+ request()&lt;br&gt;&lt;/p&gt;" style="verticalAlign=top;align=left;overflow=fill;html=1;whiteSpace=wrap;" vertex="1" parent="1">
          <mxGeometry x="660" y="695" width="180" height="70" as="geometry" />
        </mxCell>
        <mxCell id="l-inzMmxbqOnDXNdHYrH-11" value="&lt;p style=&quot;margin:0px;margin-top:4px;text-align:center;&quot;&gt;MotionRequest&lt;/p&gt;" style="verticalAlign=top;align=left;overflow=fill;html=1;whiteSpace=wrap;" vertex="1" parent="1">
          <mxGeometry x="495" y="485" width="100" height="40" as="geometry" />
        </mxCell>
        <mxCell id="l-inzMmxbqOnDXNdHYrH-13" value="" style="endArrow=open;endFill=1;endSize=12;html=1;rounded=0;exitX=1;exitY=1;exitDx=0;exitDy=0;entryX=0;entryY=0;entryDx=0;entryDy=0;" edge="1" parent="1" source="h9wSukIfPtlWrK1b2Klg-1" target="l-inzMmxbqOnDXNdHYrH-10">
          <mxGeometry width="160" relative="1" as="geometry">
            <mxPoint x="415" y="565" as="sourcePoint" />
            <mxPoint x="460" y="745" as="targetPoint" />
          </mxGeometry>
        </mxCell>
        <mxCell id="l-inzMmxbqOnDXNdHYrH-14" value="1" style="edgeLabel;resizable=0;html=1;align=right;verticalAlign=top;" connectable="0" vertex="1" parent="1">
          <mxGeometry x="675" y="675" as="geometry" />
        </mxCell>
        <mxCell id="l-inzMmxbqOnDXNdHYrH-15" value="1" style="edgeLabel;resizable=0;html=1;align=right;verticalAlign=top;" connectable="0" vertex="1" parent="1">
          <mxGeometry x="875" y="725" as="geometry" />
        </mxCell>
        <mxCell id="l-inzMmxbqOnDXNdHYrH-16" value="" style="endArrow=open;endFill=1;endSize=12;html=1;rounded=0;exitX=0.5;exitY=0;exitDx=0;exitDy=0;entryX=0.5;entryY=1;entryDx=0;entryDy=0;" edge="1" parent="1" source="l-inzMmxbqOnDXNdHYrH-11" target="h9wSukIfPtlWrK1b2Klg-28">
          <mxGeometry width="160" relative="1" as="geometry">
            <mxPoint x="544.58" y="510" as="sourcePoint" />
            <mxPoint x="544.58" y="400" as="targetPoint" />
          </mxGeometry>
        </mxCell>
        <mxCell id="l-inzMmxbqOnDXNdHYrH-17" value="1" style="edgeLabel;resizable=0;html=1;align=right;verticalAlign=top;" connectable="0" vertex="1" parent="1">
          <mxGeometry x="610" y="310" as="geometry">
            <mxPoint x="-41" y="53" as="offset" />
          </mxGeometry>
        </mxCell>
        <mxCell id="l-inzMmxbqOnDXNdHYrH-18" value="&lt;div&gt;&lt;br&gt;&lt;/div&gt;&lt;div&gt;&lt;br&gt;&lt;/div&gt;" style="endArrow=open;endSize=12;dashed=1;html=1;rounded=0;entryX=0.058;entryY=1.029;entryDx=0;entryDy=0;exitX=1;exitY=0.5;exitDx=0;exitDy=0;entryPerimeter=0;" edge="1" parent="1" source="h9wSukIfPtlWrK1b2Klg-1" target="l-inzMmxbqOnDXNdHYrH-11">
          <mxGeometry width="160" relative="1" as="geometry">
            <mxPoint x="735" y="714" as="sourcePoint" />
            <mxPoint x="520" y="455" as="targetPoint" />
          </mxGeometry>
        </mxCell>
        <mxCell id="l-inzMmxbqOnDXNdHYrH-19" value="&lt;div&gt;&lt;br&gt;&lt;/div&gt;&lt;div&gt;&lt;br&gt;&lt;/div&gt;" style="endArrow=open;endSize=12;dashed=1;html=1;rounded=0;entryX=0.5;entryY=1;entryDx=0;entryDy=0;exitX=0.5;exitY=0;exitDx=0;exitDy=0;" edge="1" parent="1" source="l-inzMmxbqOnDXNdHYrH-10" target="l-inzMmxbqOnDXNdHYrH-11">
          <mxGeometry width="160" relative="1" as="geometry">
            <mxPoint x="420" y="520" as="sourcePoint" />
            <mxPoint x="511" y="536" as="targetPoint" />
          </mxGeometry>
        </mxCell>
        <mxCell id="l-inzMmxbqOnDXNdHYrH-20" value="1" style="endArrow=open;html=1;endSize=12;startArrow=diamondThin;startSize=14;startFill=1;align=left;verticalAlign=bottom;rounded=0;exitX=0.502;exitY=0.985;exitDx=0;exitDy=0;exitPerimeter=0;" edge="1" parent="1" source="h9wSukIfPtlWrK1b2Klg-27" target="l-inzMmxbqOnDXNdHYrH-10">
          <mxGeometry x="-1" y="3" relative="1" as="geometry">
            <mxPoint x="770" y="630" as="sourcePoint" />
            <mxPoint x="930" y="630" as="targetPoint" />
          </mxGeometry>
        </mxCell>
        <mxCell id="l-inzMmxbqOnDXNdHYrH-21" value="&lt;p style=&quot;margin:0px;margin-top:4px;text-align:center;&quot;&gt;Trajectory&lt;/p&gt;" style="verticalAlign=top;align=left;overflow=fill;html=1;whiteSpace=wrap;" vertex="1" parent="1">
          <mxGeometry x="690" y="320" width="100" height="40" as="geometry" />
        </mxCell>
        <mxCell id="l-inzMmxbqOnDXNdHYrH-22" value="" style="endArrow=open;endFill=1;endSize=12;html=1;rounded=0;exitX=1;exitY=0.5;exitDx=0;exitDy=0;entryX=0;entryY=0.5;entryDx=0;entryDy=0;" edge="1" parent="1" source="h9wSukIfPtlWrK1b2Klg-28" target="l-inzMmxbqOnDXNdHYrH-21">
          <mxGeometry width="160" relative="1" as="geometry">
            <mxPoint x="635" y="475" as="sourcePoint" />
            <mxPoint x="635" y="350" as="targetPoint" />
          </mxGeometry>
        </mxCell>
        <mxCell id="l-inzMmxbqOnDXNdHYrH-23" value="1" style="edgeLabel;resizable=0;html=1;align=right;verticalAlign=top;" connectable="0" vertex="1" parent="1">
          <mxGeometry x="720" y="290" as="geometry">
            <mxPoint x="-41" y="53" as="offset" />
          </mxGeometry>
        </mxCell>
        <mxCell id="l-inzMmxbqOnDXNdHYrH-24" value="" style="endArrow=open;endFill=1;endSize=12;html=1;rounded=0;exitX=1;exitY=1;exitDx=0;exitDy=0;entryX=0;entryY=0;entryDx=0;entryDy=0;" edge="1" parent="1" source="h9wSukIfPtlWrK1b2Klg-1" target="u1hAvfkpSpj0WjAq0JWy-5">
          <mxGeometry width="160" relative="1" as="geometry">
            <mxPoint x="420" y="550" as="sourcePoint" />
            <mxPoint x="670" y="705" as="targetPoint" />
          </mxGeometry>
        </mxCell>
      </root>
    </mxGraphModel>
  </diagram>
</mxfile>
